<svg xmlns="http://www.w3.org/2000/svg" viewBox="0 0 600 500">
  <defs>
    <linearGradient id="bgGradSocial" x1="0%" y1="0%" x2="100%" y2="100%">
      <stop offset="0%" style="stop-color:#f8fafc;stop-opacity:1" />
      <stop offset="100%" style="stop-color:#e2e8f0;stop-opacity:1" />
    </linearGradient>
    <filter id="shadowSocial" x="-20%" y="-20%" width="140%" height="140%">
      <feDropShadow dx="0" dy="6" stdDeviation="10" flood-color="#0f172a" flood-opacity="0.12"/>
    </filter>
    <filter id="shadowSmSocial" x="-20%" y="-20%" width="140%" height="140%">
      <feDropShadow dx="0" dy="2" stdDeviation="4" flood-color="#0f172a" flood-opacity="0.08"/>
    </filter>
  </defs>
  
  <!-- Background -->
  <rect width="600" height="500" fill="url(#bgGradSocial)"/>
  
  <!-- Main Window -->
  <rect x="30" y="25" width="540" height="450" rx="16" fill="#ffffff" filter="url(#shadowSocial)"/>
  
  <!-- Window Header -->
  <rect x="30" y="25" width="540" height="50" rx="16" fill="#0f172a"/>
  <rect x="30" y="59" width="540" height="16" fill="#0f172a"/>
  <circle cx="55" cy="50" r="6" fill="#ef4444"/>
  <circle cx="75" cy="50" r="6" fill="#eab308"/>
  <circle cx="95" cy="50" r="6" fill="#22c55e"/>
  <text x="300" y="55" font-family="system-ui" font-size="12" fill="#ffffff" font-weight="600" text-anchor="middle">Smart Social Planner</text>
  
  <!-- Connected Platforms Bar -->
  <rect x="45" y="90" width="510" height="40" rx="8" fill="#f8fafc"/>
  <text x="60" y="115" font-family="system-ui" font-size="10" fill="#64748b" font-weight="500">Connected:</text>
  
  <!-- Platform Icons -->
  <circle cx="135" cy="110" r="14" fill="#1877f2"/>
  <text x="135" y="115" font-family="system-ui" font-size="12" fill="#ffffff" text-anchor="middle" font-weight="700">f</text>
  
  <circle cx="170" cy="110" r="14" fill="url(#igGrad)"/>
  <defs>
    <linearGradient id="igGrad" x1="0%" y1="100%" x2="100%" y2="0%">
      <stop offset="0%" style="stop-color:#feda75"/>
      <stop offset="25%" style="stop-color:#fa7e1e"/>
      <stop offset="50%" style="stop-color:#d62976"/>
      <stop offset="75%" style="stop-color:#962fbf"/>
      <stop offset="100%" style="stop-color:#4f5bd5"/>
    </linearGradient>
  </defs>
  <circle cx="170" cy="110" r="6" fill="none" stroke="#ffffff" stroke-width="2"/>
  <circle cx="176" cy="104" r="1.5" fill="#ffffff"/>
  
  <circle cx="205" cy="110" r="14" fill="#000000"/>
  <text x="205" y="114" font-family="system-ui" font-size="8" fill="#ffffff" text-anchor="middle" font-weight="700">TT</text>
  
  <circle cx="240" cy="110" r="14" fill="#0a66c2"/>
  <text x="240" y="115" font-family="system-ui" font-size="10" fill="#ffffff" text-anchor="middle" font-weight="700">in</text>
  
  <circle cx="275" cy="110" r="14" fill="#e60023"/>
  <text x="275" y="115" font-family="system-ui" font-size="12" fill="#ffffff" text-anchor="middle" font-weight="700">P</text>
  
  <circle cx="310" cy="110" r="14" fill="#ff0000"/>
  <text x="310" y="115" font-family="system-ui" font-size="10" fill="#ffffff" text-anchor="middle" font-weight="700">▶</text>
  
  <!-- Add More Button -->
  <rect x="340" y="96" width="70" height="28" rx="6" fill="#f0fdfa" stroke="#0d9488" stroke-width="1" stroke-dasharray="3"/>
  <text x="375" y="114" font-family="system-ui" font-size="10" fill="#0d9488" text-anchor="middle" font-weight="500">+ Add</text>
  
  <!-- Month Navigator -->
  <rect x="430" y="96" width="110" height="28" rx="6" fill="#ffffff" stroke="#e2e8f0" stroke-width="1"/>
  <text x="450" y="114" font-family="system-ui" font-size="10" fill="#64748b">◀</text>
  <text x="485" y="114" font-family="system-ui" font-size="10" fill="#0f172a" font-weight="600" text-anchor="middle">Dec 2025</text>
  <text x="520" y="114" font-family="system-ui" font-size="10" fill="#64748b">▶</text>
  
  <!-- Calendar Grid -->
  <!-- Day Headers -->
  <text x="75" y="155" font-family="system-ui" font-size="9" fill="#64748b" text-anchor="middle" font-weight="500">SUN</text>
  <text x="145" y="155" font-family="system-ui" font-size="9" fill="#64748b" text-anchor="middle" font-weight="500">MON</text>
  <text x="215" y="155" font-family="system-ui" font-size="9" fill="#64748b" text-anchor="middle" font-weight="500">TUE</text>
  <text x="285" y="155" font-family="system-ui" font-size="9" fill="#64748b" text-anchor="middle" font-weight="500">WED</text>
  <text x="355" y="155" font-family="system-ui" font-size="9" fill="#64748b" text-anchor="middle" font-weight="500">THU</text>
  <text x="425" y="155" font-family="system-ui" font-size="9" fill="#64748b" text-anchor="middle" font-weight="500">FRI</text>
  <text x="495" y="155" font-family="system-ui" font-size="9" fill="#64748b" text-anchor="middle" font-weight="500">SAT</text>
  
  <!-- Week 1 -->
  <rect x="45" y="165" width="65" height="60" rx="4" fill="#f8fafc" stroke="#e2e8f0" stroke-width="1"/>
  <text x="55" y="180" font-family="system-ui" font-size="10" fill="#94a3b8">1</text>
  
  <rect x="115" y="165" width="65" height="60" rx="4" fill="#f8fafc" stroke="#e2e8f0" stroke-width="1"/>
  <text x="125" y="180" font-family="system-ui" font-size="10" fill="#0f172a" font-weight="600">2</text>
  <rect x="120" y="188" width="55" height="14" rx="3" fill="#1877f2"/>
  <text x="147" y="198" font-family="system-ui" font-size="7" fill="#ffffff" text-anchor="middle">Blog Post</text>
  <rect x="120" y="205" width="55" height="14" rx="3" fill="#e60023"/>
  <text x="147" y="215" font-family="system-ui" font-size="7" fill="#ffffff" text-anchor="middle">Pin</text>
  
  <rect x="185" y="165" width="65" height="60" rx="4" fill="#f8fafc" stroke="#e2e8f0" stroke-width="1"/>
  <text x="195" y="180" font-family="system-ui" font-size="10" fill="#0f172a" font-weight="600">3</text>
  <rect x="190" y="188" width="55" height="14" rx="3" fill="#000000"/>
  <text x="217" y="198" font-family="system-ui" font-size="7" fill="#ffffff" text-anchor="middle">TikTok</text>
  
  <rect x="255" y="165" width="65" height="60" rx="4" fill="#f8fafc" stroke="#e2e8f0" stroke-width="1"/>
  <text x="265" y="180" font-family="system-ui" font-size="10" fill="#0f172a" font-weight="600">4</text>
  
  <rect x="325" y="165" width="65" height="60" rx="4" fill="#f0fdfa" stroke="#0d9488" stroke-width="2"/>
  <text x="335" y="180" font-family="system-ui" font-size="10" fill="#0d9488" font-weight="700">5</text>
  <rect x="330" y="188" width="55" height="14" rx="3" fill="#0d9488"/>
  <text x="357" y="198" font-family="system-ui" font-size="7" fill="#ffffff" text-anchor="middle">Promo 🔥</text>
  <rect x="330" y="205" width="55" height="14" rx="3" fill="#0a66c2"/>
  <text x="357" y="215" font-family="system-ui" font-size="7" fill="#ffffff" text-anchor="middle">LinkedIn</text>
  
  <rect x="395" y="165" width="65" height="60" rx="4" fill="#f8fafc" stroke="#e2e8f0" stroke-width="1"/>
  <text x="405" y="180" font-family="system-ui" font-size="10" fill="#0f172a" font-weight="600">6</text>
  <rect x="400" y="188" width="55" height="14" rx="3" fill="#ff0000"/>
  <text x="427" y="198" font-family="system-ui" font-size="7" fill="#ffffff" text-anchor="middle">YouTube</text>
  
  <rect x="465" y="165" width="65" height="60" rx="4" fill="#f8fafc" stroke="#e2e8f0" stroke-width="1"/>
  <text x="475" y="180" font-family="system-ui" font-size="10" fill="#0f172a" font-weight="600">7</text>
  
  <!-- Week 2 -->
  <rect x="45" y="230" width="65" height="60" rx="4" fill="#f8fafc" stroke="#e2e8f0" stroke-width="1"/>
  <text x="55" y="245" font-family="system-ui" font-size="10" fill="#0f172a" font-weight="600">8</text>
  <rect x="50" y="253" width="55" height="14" rx="3" fill="#1877f2"/>
  <text x="77" y="263" font-family="system-ui" font-size="7" fill="#ffffff" text-anchor="middle">Reel</text>
  
  <rect x="115" y="230" width="65" height="60" rx="4" fill="#f8fafc" stroke="#e2e8f0" stroke-width="1"/>
  <text x="125" y="245" font-family="system-ui" font-size="10" fill="#0f172a" font-weight="600">9</text>
  
  <rect x="185" y="230" width="65" height="60" rx="4" fill="#f8fafc" stroke="#e2e8f0" stroke-width="1"/>
  <text x="195" y="245" font-family="system-ui" font-size="10" fill="#0f172a" font-weight="600">10</text>
  <rect x="190" y="253" width="55" height="14" rx="3" fill="#d62976"/>
  <text x="217" y="263" font-family="system-ui" font-size="7" fill="#ffffff" text-anchor="middle">IG Story</text>
  <rect x="190" y="270" width="55" height="14" rx="3" fill="#000000"/>
  <text x="217" y="280" font-family="system-ui" font-size="7" fill="#ffffff" text-anchor="middle">TikTok</text>
  
  <rect x="255" y="230" width="65" height="60" rx="4" fill="#f8fafc" stroke="#e2e8f0" stroke-width="1"/>
  <text x="265" y="245" font-family="system-ui" font-size="10" fill="#0f172a" font-weight="600">11</text>
  
  <rect x="325" y="230" width="65" height="60" rx="4" fill="#f8fafc" stroke="#e2e8f0" stroke-width="1"/>
  <text x="335" y="245" font-family="system-ui" font-size="10" fill="#0f172a" font-weight="600">12</text>
  <rect x="330" y="253" width="55" height="14" rx="3" fill="#0a66c2"/>
  <text x="357" y="263" font-family="system-ui" font-size="7" fill="#ffffff" text-anchor="middle">Article</text>
  
  <rect x="395" y="230" width="65" height="60" rx="4" fill="#fef3c7" stroke="#f59e0b" stroke-width="1"/>
  <text x="405" y="245" font-family="system-ui" font-size="10" fill="#b45309" font-weight="700">13</text>
  <text x="427" y="265" font-family="system-ui" font-size="8" fill="#b45309" text-anchor="middle">TODAY</text>
  <rect x="400" y="273" width="55" height="14" rx="3" fill="#0d9488"/>
  <text x="427" y="283" font-family="system-ui" font-size="7" fill="#ffffff" text-anchor="middle">3 Posts</text>
  
  <rect x="465" y="230" width="65" height="60" rx="4" fill="#f8fafc" stroke="#e2e8f0" stroke-width="1"/>
  <text x="475" y="245" font-family="system-ui" font-size="10" fill="#0f172a" font-weight="600">14</text>
  
  <!-- Week 3 partial -->
  <rect x="45" y="295" width="65" height="60" rx="4" fill="#f8fafc" stroke="#e2e8f0" stroke-width="1"/>
  <text x="55" y="310" font-family="system-ui" font-size="10" fill="#0f172a" font-weight="600">15</text>
  <rect x="50" y="318" width="55" height="14" rx="3" fill="#1877f2"/>
  <text x="77" y="328" font-family="system-ui" font-size="7" fill="#ffffff" text-anchor="middle">Campaign</text>
  <rect x="50" y="335" width="55" height="14" rx="3" fill="#d62976"/>
  <text x="77" y="345" font-family="system-ui" font-size="7" fill="#ffffff" text-anchor="middle">IG Post</text>
  
  <rect x="115" y="295" width="65" height="60" rx="4" fill="#f8fafc" stroke="#e2e8f0" stroke-width="1"/>
  <text x="125" y="310" font-family="system-ui" font-size="10" fill="#0f172a" font-weight="600">16</text>
  
  <rect x="185" y="295" width="65" height="60" rx="4" fill="#f8fafc" stroke="#e2e8f0" stroke-width="1"/>
  <text x="195" y="310" font-family="system-ui" font-size="10" fill="#0f172a" font-weight="600">17</text>
  <rect x="190" y="318" width="55" height="14" rx="3" fill="#ff0000"/>
  <text x="217" y="328" font-family="system-ui" font-size="7" fill="#ffffff" text-anchor="middle">Video</text>
  
  <rect x="255" y="295" width="65" height="60" rx="4" fill="#f8fafc" stroke="#e2e8f0" stroke-width="1"/>
  <text x="265" y="310" font-family="system-ui" font-size="10" fill="#0f172a" font-weight="600">18</text>
  
  <rect x="325" y="295" width="65" height="60" rx="4" fill="#f8fafc" stroke="#e2e8f0" stroke-width="1"/>
  <text x="335" y="310" font-family="system-ui" font-size="10" fill="#0f172a" font-weight="600">19</text>
  
  <rect x="395" y="295" width="65" height="60" rx="4" fill="#f8fafc" stroke="#e2e8f0" stroke-width="1"/>
  <text x="405" y="310" font-family="system-ui" font-size="10" fill="#0f172a" font-weight="600">20</text>
  <rect x="400" y="318" width="55" height="14" rx="3" fill="#0d9488"/>
  <text x="427" y="328" font-family="system-ui" font-size="7" fill="#ffffff" text-anchor="middle">Evergreen</text>
  
  <rect x="465" y="295" width="65" height="60" rx="4" fill="#f8fafc" stroke="#e2e8f0" stroke-width="1"/>
  <text x="475" y="310" font-family="system-ui" font-size="10" fill="#0f172a" font-weight="600">21</text>
  
  <!-- Bottom Stats Bar -->
  <rect x="45" y="370" width="510" height="90" rx="10" fill="#f8fafc"/>
  
  <rect x="60" y="385" width="115" height="60" rx="8" fill="#ffffff" filter="url(#shadowSmSocial)"/>
  <text x="117" y="405" font-family="system-ui" font-size="9" fill="#64748b" text-anchor="middle">Scheduled</text>
  <text x="117" y="430" font-family="system-ui" font-size="22" fill="#0d9488" font-weight="700" text-anchor="middle">47</text>
  
  <rect x="185" y="385" width="115" height="60" rx="8" fill="#ffffff" filter="url(#shadowSmSocial)"/>
  <text x="242" y="405" font-family="system-ui" font-size="9" fill="#64748b" text-anchor="middle">This Week</text>
  <text x="242" y="430" font-family="system-ui" font-size="22" fill="#0f172a" font-weight="700" text-anchor="middle">12</text>
  
  <rect x="310" y="385" width="115" height="60" rx="8" fill="#ffffff" filter="url(#shadowSmSocial)"/>
  <text x="367" y="405" font-family="system-ui" font-size="9" fill="#64748b" text-anchor="middle">Evergreen Queue</text>
  <text x="367" y="430" font-family="system-ui" font-size="22" fill="#6366f1" font-weight="700" text-anchor="middle">89</text>
  
  <rect x="435" y="385" width="115" height="60" rx="8" fill="#ffffff" filter="url(#shadowSmSocial)"/>
  <text x="492" y="405" font-family="system-ui" font-size="9" fill="#64748b" text-anchor="middle">Time Saved</text>
  <text x="492" y="430" font-family="system-ui" font-size="18" fill="#22c55e" font-weight="700" text-anchor="middle">8+ hrs</text>
</svg>