<svg width="600" height="400" viewBox="0 0 600 400" fill="none" xmlns="http://www.w3.org/2000/svg">
  <rect width="600" height="400" fill="#F8FAFC" rx="12"/>
  <rect x="30" y="30" width="540" height="340" fill="white" rx="8" stroke="#E2E8F0" stroke-width="2"/>
  <rect x="30" y="30" width="540" height="60" fill="#0F172A" rx="8"/>
  <text x="60" y="65" font-family="Arial, sans-serif" font-size="20" font-weight="bold" fill="white">Ad Campaign Hub</text>
  <rect x="60" y="120" width="240" height="80" fill="#E0F2FE" rx="12" stroke="#0EA5E9" stroke-width="2"/>
  <circle cx="100" cy="160" r="20" fill="#1877F2"/>
  <text x="95" y="168" font-family="Arial, sans-serif" font-size="20" font-weight="bold" fill="white">f</text>
  <text x="140" y="155" font-family="Arial, sans-serif" font-size="16" font-weight="600" fill="#0F172A">Facebook Ads</text>
  <text x="140" y="175" font-family="Arial, sans-serif" font-size="12" fill="#64748B">Connected</text>
  <circle cx="280" cy="160" r="6" fill="#22C55E"/>
  <rect x="320" y="120" width="240" height="80" fill="#FEF3C7" rx="12" stroke="#F59E0B" stroke-width="2"/>
  <circle cx="360" cy="160" r="20" fill="white" stroke="#E2E8F0" stroke-width="2"/>
  <text x="355" y="168" font-family="Arial, sans-serif" font-size="20" font-weight="bold" fill="#4285F4">G</text>
  <text x="400" y="155" font-family="Arial, sans-serif" font-size="16" font-weight="600" fill="#0F172A">Google Ads</text>
  <text x="400" y="175" font-family="Arial, sans-serif" font-size="12" fill="#64748B">Connected</text>
  <circle cx="540" cy="160" r="6" fill="#22C55E"/>
  <rect x="60" y="230" width="240" height="120" fill="white" rx="8" stroke="#E2E8F0" stroke-width="2"/>
  <text x="80" y="260" font-family="Arial, sans-serif" font-size="14" font-weight="600" fill="#0F172A">Spring Sale Campaign</text>
  <text x="80" y="280" font-family="Arial, sans-serif" font-size="12" fill="#64748B">Budget: $500/day</text>
  <text x="80" y="300" font-family="Arial, sans-serif" font-size="12" fill="#64748B">Status: Active</text>
  <rect x="80" y="315" width="100" height="25" fill="#14B8A6" rx="6"/>
  <text x="100" y="332" font-family="Arial, sans-serif" font-size="12" font-weight="600" fill="white">Launch</text>
  <rect x="320" y="230" width="240" height="120" fill="white" rx="8" stroke="#E2E8F0" stroke-width="2"/>
  <text x="340" y="260" font-family="Arial, sans-serif" font-size="14" font-weight="600" fill="#0F172A">New Customer Drive</text>
  <text x="340" y="280" font-family="Arial, sans-serif" font-size="12" fill="#64748B">Budget: $300/day</text>
  <text x="340" y="300" font-family="Arial, sans-serif" font-size="12" fill="#64748B">Status: Ready</text>
  <rect x="340" y="315" width="100" height="25" fill="#14B8A6" rx="6"/>
  <text x="360" y="332" font-family="Arial, sans-serif" font-size="12" font-weight="600" fill="white">Launch</text>
  <rect x="220" y="10" width="160" height="35" fill="#14B8A6" rx="18"/>
  <text x="250" y="33" font-family="Arial, sans-serif" font-size="14" font-weight="bold" fill="white">⚡ 1-Click Launch</text>
</svg>
